<svg id="Group_16557" data-name="Group 16557" xmlns="http://www.w3.org/2000/svg" xmlns:xlink="http://www.w3.org/1999/xlink" width="97.56" height="60.473" viewBox="0 0 97.56 60.473">
  <defs>
    <clipPath id="clip-path">
      <rect id="Rectangle_6361" data-name="Rectangle 6361" width="97.56" height="60.473" fill="none"/>
    </clipPath>
  </defs>
  <path id="Path_3102" data-name="Path 3102" d="M328.977,332.173l-.007-3.187-1.58,2.638h-.4l-1.58-2.6v3.146h-.852v-4.809h.735l1.91,3.188,1.875-3.188h.735l.007,4.809Z" transform="translate(-278.402 -280.051)" fill="#003437"/>
  <g id="Group_16552" data-name="Group 16552">
    <g id="Group_16551" data-name="Group 16551" clip-path="url(#clip-path)">
      <path id="Path_3103" data-name="Path 3103" d="M383.377,331.8a2.532,2.532,0,0,1-.994-.95,2.737,2.737,0,0,1,0-2.718,2.533,2.533,0,0,1,.994-.95,3.119,3.119,0,0,1,2.843,0,2.541,2.541,0,0,1,.994.946,2.752,2.752,0,0,1,0,2.725,2.541,2.541,0,0,1-.994.946,3.119,3.119,0,0,1-2.843,0m2.349-.729a1.677,1.677,0,0,0,.648-.648,1.961,1.961,0,0,0,0-1.864,1.68,1.68,0,0,0-.648-.648,1.971,1.971,0,0,0-1.856,0,1.682,1.682,0,0,0-.648.648,1.963,1.963,0,0,0,0,1.864,1.679,1.679,0,0,0,.648.648,1.972,1.972,0,0,0,1.856,0" transform="translate(-327.916 -280.553)" fill="#003437"/>
      <path id="Path_3104" data-name="Path 3104" d="M443.393,327.364v5.156H442.6l-2.843-3.491v3.491h-.95v-5.156h.788l2.843,3.491v-3.491Z" transform="translate(-376.663 -281)" fill="#003437"/>
      <path id="Path_3105" data-name="Path 3105" d="M495.206,331.718v.8H491.34v-5.156H495.1v.8H492.3v1.341h2.489v.788H492.3v1.422Z" transform="translate(-421.751 -281)" fill="#003437"/>
      <path id="Path_3106" data-name="Path 3106" d="M533.793,330.7v1.819h-.958v-1.8l-2.025-3.352h1.024l1.51,2.512,1.524-2.512h.943Z" transform="translate(-455.632 -281)" fill="#003437"/>
      <path id="Path_3107" data-name="Path 3107" d="M242.466,140.9a2.384,2.384,0,0,0-2.384,2.384v17.991a2.384,2.384,0,1,0,4.769,0V143.285a2.384,2.384,0,0,0-2.384-2.384" transform="translate(-206.079 -120.945)" fill="#003437"/>
      <path id="Path_3108" data-name="Path 3108" d="M72.735,139.088a11.41,11.41,0,0,0-11.4,11.4c0,.025,0,.049,0,.074s0,.025,0,.037v15.935a2.384,2.384,0,0,0,4.769,0v-6.783a11.394,11.394,0,1,0,6.628-20.66m0,18.026a6.629,6.629,0,1,1,6.629-6.629,6.636,6.636,0,0,1-6.629,6.629" transform="translate(-52.651 -119.389)" fill="#003437"/>
      <path id="Path_3109" data-name="Path 3109" d="M301.483,143.857a6.607,6.607,0,0,1,5.907,3.617,2.384,2.384,0,1,0,4.246-2.17,11.4,11.4,0,1,0-.085,10.525,2.384,2.384,0,1,0-4.21-2.239,6.63,6.63,0,1,1-5.858-9.734" transform="translate(-249.001 -119.389)" fill="#003437"/>
      <path id="Path_3110" data-name="Path 3110" d="M472.179,139.088a11.4,11.4,0,1,0,11.4,11.4,11.41,11.41,0,0,0-11.4-11.4m0,18.026a6.629,6.629,0,1,1,6.628-6.629,6.637,6.637,0,0,1-6.628,6.629" transform="translate(-395.522 -119.389)" fill="#003437"/>
      <path id="Path_3111" data-name="Path 3111" d="M13.859,10.463,4.1.7A2.4,2.4,0,0,0,.7,4.1l8.062,8.062L.7,20.223a2.4,2.4,0,0,0,3.4,3.4l9.76-9.76a2.4,2.4,0,0,0,0-3.4" fill="#00ff86"/>
      <path id="Path_3112" data-name="Path 3112" d="M591.819,267.415l8.062-8.062a2.4,2.4,0,0,0-3.4-3.4l-9.76,9.76a2.4,2.4,0,0,0,0,3.4l9.76,9.76a2.4,2.4,0,1,0,3.4-3.4Z" transform="translate(-503.024 -219.102)" fill="#008979"/>
    </g>
  </g>
</svg>
