<svg xmlns="http://www.w3.org/2000/svg" width="43.353" height="56.599" viewBox="0 0 43.353 56.599">
  <g id="store-svgrepo-com_2_" data-name="store-svgrepo-com (2)" transform="translate(-5.5)">
    <g id="Group_16659" data-name="Group 16659" transform="translate(5.5 0)">
      <path id="Path_3191" data-name="Path 3191" d="M45.74,17.246a1.2,1.2,0,0,0-.521-.991L27.757,4.212a1.2,1.2,0,0,0-1.367,0L8.929,16.255a1.2,1.2,0,0,0-.52.991V53.373H6v2.409H48.149V53.373H45.74Zm-27.7,36.128V42.535H22.86V53.373Zm7.226,0V41.331a1.2,1.2,0,0,0-1.2-1.2H16.838a1.2,1.2,0,0,0-1.2,1.2V53.373H10.817V17.879L27.074,6.666,43.332,17.879v35.5H25.268Z" transform="translate(-5.397 0.817)" fill="#01014c"/>
      <path id="Path_3192" data-name="Path 3192" d="M48.323,14.055,27.851.206a1.209,1.209,0,0,0-1.35,0L6.029,14.055a1.2,1.2,0,0,0,1.35,2l19.8-13.394,19.8,13.392a1.2,1.2,0,1,0,1.35-1.994Z" transform="translate(-5.5 0)" fill="#01014c"/>
      <path id="Path_3193" data-name="Path 3193" d="M34.634,34H26.2A1.2,1.2,0,0,0,25,35.2v6.021a1.2,1.2,0,0,0,1.2,1.2h8.43a1.2,1.2,0,0,0,1.2-1.2V35.2A1.2,1.2,0,0,0,34.634,34Zm-1.2,6.021H27.409V36.408H33.43Z" transform="translate(-1.516 6.944)" fill="#01014c"/>
      <path id="Path_3194" data-name="Path 3194" d="M34.634,22H26.2A1.2,1.2,0,0,0,25,23.2v6.021a1.2,1.2,0,0,0,1.2,1.2h8.43a1.2,1.2,0,0,0,1.2-1.2V23.2A1.2,1.2,0,0,0,34.634,22Zm-1.2,6.021H27.409V24.408H33.43Z" transform="translate(-1.516 4.493)" fill="#01014c"/>
      <path id="Path_3195" data-name="Path 3195" d="M22.634,22H14.2A1.2,1.2,0,0,0,13,23.2v6.021a1.2,1.2,0,0,0,1.2,1.2h8.43a1.2,1.2,0,0,0,1.2-1.2V23.2A1.2,1.2,0,0,0,22.634,22Zm-1.2,6.021H15.409V24.408H21.43Z" transform="translate(-3.968 4.493)" fill="#01014c"/>
    </g>
  </g>
</svg>
